<svg xmlns="http://www.w3.org/2000/svg" viewBox="0 0 418.46 418.51"><defs><style>.cls-1{fill:#2462ac;}.cls-2{fill:#fbfcfd;}.cls-3{fill:#1e5fab;}.cls-4{fill:#2361ab;}.cls-5{fill:#2261ab;}.cls-6{fill:#eef1f7;}.cls-7{fill:#eff2f7;}.cls-8{fill:#f0f3f8;}.cls-9{fill:#f1f4f8;}.cls-10{fill:#e8edf5;}.cls-11{fill:#f7f9fb;}.cls-12{fill:#1f60ab;}.cls-13{fill:#2160ab;}</style></defs><title>iso9001</title><g id="Layer_2" data-name="Layer 2"><g id="Layer_1-2" data-name="Layer 1"><g id="Layer_1-2-2" data-name="Layer 1-2"><path class="cls-1" d="M418.46,209.17c0,115.68-93.62,209.35-209.22,209.34S.05,324.72,0,209.15C0,97,89.82-.09,209.41,0S418.68,97.15,418.46,209.17Zm-4.71.27C413.88,96.73,322.55,4.87,210.13,4.63A204.59,204.59,0,0,0,4.74,208.88c-.21,112.86,91.17,204.74,203.78,204.9C322,413.94,413.63,322.71,413.75,209.44Z"/><path class="cls-2" d="M413.75,209.44c-.12,113.27-91.75,204.5-205.23,204.34-112.61-.16-204-92-203.78-204.9A204.59,204.59,0,0,1,210.13,4.63C322.55,4.87,413.88,96.73,413.75,209.44ZM330.1,341.77c-3.6-.87-6.85-2.68-10.31-3.94-1-.36-1.92-1.05-3,0-1.29,1.32-2.7,2.51-4.32,4,4.23,1.44,7.91,3,11.75,3.94,5.65,1.39,10.35,4.06,13.6,8.93,1.59,2.39,2.68,1.16,4.13-.12s2.52-2.34.38-4.07c-4.44-3.62-6.68-8.44-7.64-14.06-.68-4-1.93-7.83-3-12a24.53,24.53,0,0,1-2.51,2.15c-2.31,1.46-2.63,3.21-1.6,5.75,1.2,2.93,1.89,6.07,2.8,9.13Zm-38.65,24.8c5.33,3.14,10.81,6,15.93,9.49,2.77,1.87,4.8,1.42,7.2-.21,1-.69,1.34-1.13.66-2.32-4.3-7.54-8.52-15.13-12.78-22.68-.27-.48-.52-1.42-1.16-1.14a12.89,12.89,0,0,0-4.08,2.39c-.76.75.49,1.74.94,2.56,2.65,4.82,5.34,9.61,8,14.41a125.65,125.65,0,0,1-16-9.11c-2.9-2-5.07-1.72-7.69.13-1.15.82-1.39,1.27-.67,2.53,4.22,7.35,8.44,14.7,12.45,22.17,1.18,2.19,2.18,1.28,3.46.48s3-.95,1.55-3.37c-3-4.83-5.51-9.91-8.23-14.89a4.37,4.37,0,0,0,.42-.44ZM366,209.38c.08-86.32-70-156.71-156.14-156.87A156.78,156.78,0,0,0,52.51,208.72v.37c-.22,86.36,69.95,156.69,156.45,156.8A156.64,156.64,0,0,0,366,209.65ZM178.16,395.68l-.64-.18c-.1-1.28-.23-2.56-.31-3.84q-.47-8.07-.91-16.15c-.07-1.14-.15-2.24-1.7-2.28-2.42-.07-4.72-1.54-7.21-.59-.22.08-.27.71-.34,1.1-1.43,8.36-2.82,16.73-4.29,25.08-.29,1.65.26,2.06,1.84,2.54,2.93.89,3.75-.09,4.13-2.88.85-6.19,2-12.34,3.06-18.51a204.17,204.17,0,0,1,1.55,20.52c0,2.81,1.85,2.49,3.45,2.93,1.81.49,2.89.11,3.57-1.9,1.15-3.39,2.67-6.66,4-10,1-2.43,2.07-4.85,3.1-7.28a4.91,4.91,0,0,1,.32,3c-.85,5-1.56,10.06-2.65,15-.5,2.31.45,2.71,2.29,3s3.11.61,3.48-2c1-6.92,2.25-13.79,3.45-20.67,1-5.75,1-5.58-4.84-6.84-2.45-.53-3.28.25-4.1,2.34C183.14,384,180.61,389.81,178.16,395.68ZM168.23,34.84c2.74-4.13,2.9-7.32.57-10.58s-5.27-4.06-9.87-2.86c-3.86,1-7.65,2.27-11.53,3.19-1.9.45-2,1.21-1.5,2.89,2.31,7.84,4.55,15.7,6.64,23.6.56,2.08,1.32,2.26,3.31,1.78,2.65-.64,3.49-1.66,2.29-4.21a21.51,21.51,0,0,1-.9-3.16c-1.34-4.74-1.34-4.73,3.26-6s5.54-.84,7,3.69c2.3,7.29,1.59,5.7,7.81,4.07a3.63,3.63,0,0,0,.84-.51C172.16,43.52,174.46,36.44,168.23,34.84ZM149.66,373.76c.13-7.67-6.39-13.91-14.58-13.94-7.5,0-14.68,8.48-14.81,17.54-.1,7.43,6.43,13.61,14.51,13.72C142.5,391.18,149.51,383,149.66,373.76ZM332.22,93.32c5.51-.62,10.07-4.56,13.41-10.07,3.05-5,2.41-9.68-1.72-13.89-2.66-2.7-5.52-5.2-8.2-7.88-1.07-1.07-1.71-1.16-2.82,0Q324.25,70.86,315.43,80c-1.15,1.2-1,1.85.16,2.85,2.74,2.47,5.36,5.08,8.08,7.57C325.72,92.3,328.12,93.41,332.22,93.32Zm-13-43.49c.08-1.14-.59-1.3-1.07-1.59-5.19-3.18-10.42-6.31-15.58-9.54-1.18-.74-1.67-.41-2.3.64q-6.64,11-13.39,22c-.76,1.22-.63,1.83.61,2.57,5.32,3.16,10.64,6.34,15.86,9.66,2.09,1.34,2.3-.44,3-1.47s1.85-2-.14-3.07c-2.81-1.52-5.47-3.3-8.2-5-4.24-2.59-4.15-2.53-1.59-6.88,1-1.69,1.74-2,3.41-.88,2.46,1.7,5.17,3,7.63,4.75,1.74,1.21,2.61,1.28,3.9-.76,1.42-2.25.28-2.82-1.31-3.73-2.6-1.48-5-3.29-7.71-4.61-2.38-1.17-1.4-2.36-.43-3.69s1.08-3.5,3.61-1.73c2.85,2,5.93,3.69,8.92,5.5C316.51,53.31,319.16,51.88,319.22,49.83ZM134.5,46.93a16.85,16.85,0,0,0-2.06-3.5c-.75-.8-1.61.33-2.35.7a84.47,84.47,0,0,0-8.44,4.53c-2.21,1.45-2.6-.27-3.11-1.49s-2.77-2.65.08-4c3.5-1.71,6.84-3.75,10.35-5.43,2.24-1.07.83-2.17.3-3.28s-.8-2.46-2.75-1.36c-5.13,2.89-10.37,5.6-15.61,8.29-1.37.7-1.66,1.25-.88,2.7q6,11,11.83,22.21c.73,1.4,1.29,1.91,2.88,1,5.24-2.92,10.5-5.79,15.88-8.43,2.13-1,1.4-2,.66-3.43s-1.23-2.61-3.24-1.3c-2.42,1.57-5.09,2.77-7.64,4.13-4.79,2.54-4.69,2.48-7.23-2.18-1-1.75-.44-2.36,1.1-3.11,3-1.45,5.84-3,8.73-4.63C133.57,48,134.39,48,134.5,46.93ZM276.81,394.35c-5.83-8.2-11.42-16.21-17.18-24.09-1.75-2.39-3.76.23-5.66.26-1.51,0-1.84,1-1.93,2.43-.51,8.66-1.16,17.31-1.62,26,0,.85-1.15,3,.86,2.65,1.75-.29,5.17.06,4.93-2.51-.47-4.94,2.23-6.12,6-6.78a10,10,0,0,0,2.29-.66c1.74-.76,3.07-.49,3.79,1.39,1.19,3.14,3.34,3.41,6.08,2.12A19.15,19.15,0,0,1,276.81,394.35Zm-164.3-42.92c.13-7.56-7.73-14.25-15-13S83.31,348,83.29,355.3c0,5.38,2.9,9,7.37,11.49,4.24,2.33,8.47,1.78,12.43-.88.57-.38,1.67-.56,1.27-1.69-.57-1.6-4.51-3-6.1-2.22a5.59,5.59,0,0,1-6.2-.47c-2.15-1.51-3.31-3.64-2.8-6.18a14.79,14.79,0,0,1,8.59-10.83,5.73,5.73,0,0,1,6.43,1c1.77,1.5,2.9,3.27,2.41,5.74-.36,1.79,2.2,5.67,3.75,5.3,1.92-.46,1.69-2.59,2-4.18A6,6,0,0,0,112.51,351.43ZM108.3,74.2a11.57,11.57,0,0,0-1.12-5.52c-.25-.5-.36-1.2-1.13-1.21-1.44,0-4.16,3.73-3.68,5.18a5.55,5.55,0,0,1-1.81,6.45,5.93,5.93,0,0,1-7,1,15,15,0,0,1-8.09-9.89c-1.2-4.61,3.59-9.53,7.65-7.72,2.58,1.15,3.72,0,5.41-1.26,1.93-1.4,1.32-2.19-.29-3.17-6.52-4-16.23.33-18.42,8.16-2.14,7.67,4.73,18.12,13.16,20C100.42,87.93,108.26,81.74,108.3,74.2ZM210.83,382.65c.44,6.12,1,13.77,1.51,21.43.1,1.72.64,2.11,2.31,2,4-.27,4-.18,3.66-4.19-.06-.6-.15-1.19-.2-1.79-.42-4.79-.41-4.78,4.24-5.11.89-.06,1.78-.18,2.67-.31,6.32-.89,8.54-3.84,8-10.55-.44-5.42-4-8.35-9.8-8.08-2.79.12-5.57.38-8.35.54C210.55,376.85,210.55,376.84,210.83,382.65Zm48-343.92c1.85.37,1.4-1.46,1.75-2.52s.82-2.24-1.14-2.58c-2.85-.5-5.61-1.51-8.46-1.94-2.26-.35-2.59-1.32-1.84-3.19a5.23,5.23,0,0,0,.43-1.74c.08-2.24,1.33-2.23,3-1.79,3.29.85,6.65,1.43,9.89,2.43,2.48.78,2.21-1,2.66-2.29.52-1.48.38-2.31-1.48-2.71-5.47-1.16-10.89-2.53-16.32-3.88-1.43-.36-2.11-.2-2.49,1.46q-2.82,12.4-5.89,24.76c-.74,3,1.84,2.12,3.08,2.69s2.63.73,3-1.43c.43-2.66,1.28-5.24,1.78-7.89.32-1.68,1.06-2.11,2.68-1.67,3,.81,6,1.48,9.32,2.29ZM204,14.89c-6,.4-11.87.81-17.75,1.18-1.52.1-2.52.26-2.41,2.37.13,2.52,1,3.34,3.43,2.86.87-.17,1.83,0,2.68-.22,2.64-.71,3.17.57,3.29,2.9.3,6.08,1,12.15,1.14,18.24,0,3.17,1.81,2.43,3.64,2.55,2.45.16,2.73-1,2.54-3.07-.48-5-.82-10-1.12-14.94-.38-6.26-.34-6.32,5.79-6.68,1.81-.11,2.54-.46,2.53-2.57C207.74,14.35,206,14.45,204,14.89Zm81.14,16c-1-1.37-2.81-1.44-4.21-2.21s-1.66.42-2,1.34c-3.15,7.76-6.18,15.57-9.53,23.25-1.25,2.84.94,2.61,2.22,3.28,1.48.78,2.68,1.36,3.6-1,3-7.72,6.19-15.34,9.32-23,.14-.48.32-.94.59-1.63ZM223,44.64c2.32.7,3-.29,3.1-2.46q.83-12.06,2-24.1c.2-2-.4-2.75-2.33-2.66-1.67.08-3.71-1.12-3.89,2.2-.44,7.85-1.15,15.69-1.93,23.51C219.64,43.74,220,45.25,223,44.64Z"/><path class="cls-3" d="M366,209.38A156.64,156.64,0,0,1,209.23,365.89H209c-86.5-.11-156.67-70.44-156.45-156.8a156.78,156.78,0,0,1,157-156.58h.31C296,52.67,366.06,123.06,366,209.38Zm-49.63-23.49a48.93,48.93,0,0,0-.63-8.37c-1.75-13.17-8.31-22.66-21-27.55a52.38,52.38,0,0,0-32.92-2.05c-11.92,3.11-21.18,9.28-25.09,21.62a55.51,55.51,0,0,0-2.47,20.72c1.24,18.42,11,30,28.93,34.2a54.88,54.88,0,0,0,28.13-.87c12.56-3.64,20.4-11.6,23.41-24.36a52.62,52.62,0,0,0,1.62-13.34ZM213.29,152.45a8.45,8.45,0,0,1-1-.21c-.55-.23-1.11-.45-1.64-.73a44.81,44.81,0,0,0-28.18-4.75c-8.24,1.17-15.77,4-20.18,11.8-7.2,12.77-1.53,27.59,12.92,33.59,3.67,1.52,7.57,2.52,11.38,3.71,6.19,1.93,12.4,3.78,18.58,5.76,1.48.48,3.33,1.11,3.15,3.09s-1.94,2.34-3.5,2.79a6.54,6.54,0,0,1-.86.26c-11,1.31-20.69-.83-27.77-10.12a3,3,0,0,0-2.63-1.54c-3.79.08-7.59.07-11.39,0-1.33,0-2,.31-2,1.83v24.29c0,1.15.18,1.89,1.61,1.87,4.5-.06,9,0,13.49,0,1,0,1.36-.35,1.51-1.36.54-3.61.59-3.61,4-2,1,.46,2,1,3,1.4,11.29,4.41,22.68,5.42,34.14.73a22.55,22.55,0,0,0,13.77-25.52c-2.1-9.48-8.44-15.4-17.3-18.75-2.61-1-5.34-1.63-8-2.43-6.79-2-13.6-4-20.37-6.08-1.59-.49-3.45-1.26-3.27-3.37s2.13-2.42,3.7-3a3.36,3.36,0,0,1,1.18-.15c9.67-.22,18.48,1.83,25.16,9.5a3,3,0,0,0,2.51,1.29c4.1-.07,8.2-.1,12.29,0,1.69.05,2-.67,2-2.13q-.09-10.78,0-21.59c0-1.58-.52-2.07-2.07-2-3.4.1-6.81.19-10.19,0C214.42,148.42,212.42,148.74,213.29,152.45Zm-82.7-5.19c-7.3,0-14.6.05-21.9,0-1.79,0-2.51.4-2.38,2.32.17,2.48,0,5,0,7.49,0,2.79-.91,6.38.47,8.14s5.24.39,8,.64h.3c1.65-.25,2.24.35,2.23,2.11q-.11,17.85,0,35.69c0,1.55-.41,2.13-2,2-2.29-.12-4.6,0-6.89,0-1.5-.07-2.15.31-2.11,2,.1,4.79.11,9.59,0,14.39,0,1.77.61,2.15,2.25,2.15q22.2-.09,44.39,0c1.53,0,2.16-.38,2.08-2-.11-2.49.05-5-.05-7.49-.12-3,1.26-6.8-.62-8.6-1.48-1.43-5.3-.51-8.08-.46-1.6,0-2.28-.3-2.27-2.11q.11-17.85,0-35.69c0-1.63.57-2.06,2.08-2,2.3.1,4.6-.06,6.9,0,1.59.08,2.07-.51,2-2.06-.08-4.7-.13-9.4,0-14.1.07-2.06-.7-2.46-2.57-2.44C145.19,147.32,137.89,147.26,130.59,147.26ZM133.83,233c18.75,27,44,41.31,76.56,40.52,30.7-.74,54.38-15.07,71.85-40.5-2.5-.77-3.87-.25-5.15,1.63A77.84,77.84,0,0,1,264.38,249c-4,3.53-3.95,3.54-8.49.59a24.61,24.61,0,0,0-3.06-1.88c-1.48-.7-1.24-1.36-.33-2.42a70,70,0,0,0,7.35-10.57c.31-.54,1.16-1.2.44-1.79-.45-.36-1.34-.22-2-.22-1.11,0-1.4,1-1.9,1.69-1.88,2.71-3.85,5.35-5.64,8.12-1.41,2.19-2.83,2.91-5.27,1.33a32.75,32.75,0,0,0-5.75-2.54c-1.56-.64-3.69-.76-4.62-1.89-1.23-1.51.87-3.19,1.09-4.91.08-.63.8-1.46-.24-1.73s-2.07-.5-2.7.62a7.8,7.8,0,0,0-.83,2.23c-.47,2.3-1.53,3-4,2.25a70,70,0,0,0-16.28-2.38c-1.25,0-2.74.31-2.6-1.82.06-1-.78-1-1.5-1s-1.61,0-1.53.93c.18,2.11-1.23,1.84-2.52,1.88a77.1,77.1,0,0,0-13.37,1.67c-1.76.37-3.63,1.38-5.22,1-1.9-.39-1.62-2.92-2.36-4.48-.65-1.38-1.84-1.25-2.8-1-1.43.44-.27,1.46-.13,2.19a6.92,6.92,0,0,0,.78,2.25c1,1.68.41,2.44-1.33,3a54,54,0,0,0-10.21,4.26c-1.37.74-2.11.42-3-.68a64.71,64.71,0,0,1-6.41-9c-1.06-1.89-2.35-2.51-4.59-1.69,2.44,5,5.82,9.29,9.27,13.69-2.42,1.58-4.83,3-7,4.68-1.31,1-2.12.89-3.32-.13a83.2,83.2,0,0,1-15.21-16.48C137.83,232.91,136.47,232.27,133.83,233Zm147.92-94.2C268.16,116,238.65,96,203,98.37c-29.51,1.93-52.2,15.86-69,40.33,2.7.8,4,0,5.28-1.83a78.89,78.89,0,0,1,14.8-16c.85-.7,1.5-1.47,2.79-.5,2.4,1.78,4.94,3.36,7.49,5.07-3.31,4.26-6.6,8.47-9,13.36,2.45.82,3.69-.12,4.82-2,1.59-2.65,3.57-5.05,5.29-7.63,1.16-1.74,2.31-2.34,4.33-1.07a36.33,36.33,0,0,0,5.73,2.57c1.84.76,4.38,1,5.38,2.31,1.11,1.51-1.14,3.53-1.28,5.5a1.41,1.41,0,0,0,0,.29c2.43,1.08,3.43-.18,4-2.36.37-1.47.74-2.83,3-2.19a81.92,81.92,0,0,0,17.74,2.68c.93.06,1.78-.16,2.24,1.29a1.47,1.47,0,0,0,2.82.14c.52-1.57,1.43-1.37,2.46-1.44A93.79,93.79,0,0,0,226.44,135c1.46-.33,3-1.1,4.36-.86,1.82.32,1.59,2.49,2.18,3.87s1.8,1.23,2.78,1c1.62-.38.32-1.4.22-2.1a6.42,6.42,0,0,0-.69-2c-.8-1.49-.5-2.16,1.2-2.76a85.36,85.36,0,0,0,10.22-4.26c1.77-.9,2.65-.5,3.63.94,1.86,2.72,4,5.27,5.66,8.09,1.17,2,2.48,2.61,4.88,1.8-1.5-2.37-2.87-4.67-4.37-6.89s-4.46-4.41-4.18-6.24c.32-2.18,4.16-2.89,6.16-4.66,1.37-1.21,2.35-1.15,3.78.09a83.31,83.31,0,0,1,14.54,15.87C278.06,138.66,279.38,139.51,281.75,138.8ZM124.3,295.46a15.39,15.39,0,0,1-1,5.2c-.91,2.79-2.33,5.2-5.58,5.53s-5-1.25-5.93-4.27c-.55-1.77-2.28-.95-3.35-.75-1.4.25-.51,1.5-.31,2.22a7.76,7.76,0,0,0,6.42,5.93c4.14.82,8,.1,10.35-3.6a24.52,24.52,0,0,0,1.77-23.47c-1.7-4.05-5.5-5.34-9.68-5.13a9.29,9.29,0,0,0-8.85,6.46c-1.73,4.71-.52,9.94,2.86,12.6C114.66,299,119.49,298.86,124.3,295.46Zm32.7-1.83c.18,3.61.49,6.89,1.88,9.95,1.74,3.79,4.61,6,8.85,6s7.39-1.87,9-5.75a26.69,26.69,0,0,0,0-21,8.94,8.94,0,0,0-9-5.77c-4.22.05-7.13,2.19-8.86,6A26.73,26.73,0,0,0,157,293.63Zm-3.23-.41A23,23,0,0,0,151.92,283c-1.74-3.8-4.71-5.91-8.93-5.91a9,9,0,0,0-8.92,5.89,26.67,26.67,0,0,0,0,20.71c1.61,4,4.84,6,9.2,5.9s7.1-2.32,8.77-6.14a24.18,24.18,0,0,0,1.76-10.23Zm112.25.1a23.71,23.71,0,0,0-1.83-10.22c-1.74-3.82-4.65-6-8.87-6a9.09,9.09,0,0,0-9.1,6.08,26.87,26.87,0,0,0,0,20.43,9,9,0,0,0,8.85,6,9.22,9.22,0,0,0,9-5.76,23.37,23.37,0,0,0,2-10.53Zm33.4-3.41c.33-2.36.65-4.22.84-6.09.16-1.56.79-2.22,2.48-2.13,3,.14,6,0,9,.06,1.57.05,2.36-.24,2.31-2.09,0-1.64-.67-2-2.15-2-4.1.07-8.2.1-12.29,0-1.73-.05-2.22.7-2.4,2.24-.51,4.16-1.18,8.31-1.71,12.47-.1.79-.73,1.94.43,2.36a3.35,3.35,0,0,0,2.9-.09c.59-.35,1-.95,1.6-1.35a6.88,6.88,0,0,1,10.68,3.45c1,3.69-.62,7.6-3.74,8.85a6.73,6.73,0,0,1-8.84-3.52l0-.07c-.92-1.9-2.43-1.19-3.56-1-1.6.28-.57,1.58-.32,2.38,1.54,4.84,6.24,7.07,12.51,6,5.36-.92,8.66-5.09,8.63-10.92a9.93,9.93,0,0,0-8.6-10,12.6,12.6,0,0,0-7.71,1.45ZM229.8,308.73c3,0,6-.06,9,0,1.47,0,1.86-.53,1.87-1.93s-.56-1.89-1.94-1.87c-4,.06-8,.05-12,0-.95,0-2.32.54-2.77-.42-.57-1.23.68-2.16,1.45-3a15.62,15.62,0,0,1,4.13-2.94c2.18-1.23,4.39-2.4,6.48-3.76a9.45,9.45,0,0,0,4.15-5.32c1.61-5.55-1.28-10.72-6.78-12-6.77-1.62-12.48,1.85-13.47,8.28-.14,1-1.06,2.57,1.08,2.7,1.48.1,2.91.38,3-2a5.43,5.43,0,0,1,4.05-5.35c3.17-.85,6.34.3,7.57,2.74a6.45,6.45,0,0,1-2.36,8.16c-2.56,1.73-5.31,3.18-7.93,4.83a13.17,13.17,0,0,0-6.3,10c-.17,1.42.23,2,1.73,1.93,3.07-.12,6.07-.06,9.07,0Zm54.06-15.61V279.06c0-.84.27-1.92-1.13-2-1,0-2.05-.2-2.4,1.15-.9,3.48-3.45,4.67-6.74,4.74-1.44,0-1.5.93-1.5,2,0,1.25.72,1.46,1.75,1.43a29.91,29.91,0,0,0,3.28,0c2-.26,2.54.57,2.5,2.51-.11,5.88,0,11.76-.07,17.64,0,1.64.38,2.28,2.14,2.26s2.25-.49,2.21-2.21c-.08-4.48,0-9,0-13.46Zm-87.38-.29V279.06c0-.84.28-1.94-1.14-2-.88,0-1.88-.25-2.21,1-1,3.53-3.49,4.9-6.94,4.94-1.32,0-1.27.92-1.32,1.86,0,1.17.44,1.62,1.59,1.57s2.21.1,3.29,0c2-.24,2.53.51,2.49,2.47-.13,5.88,0,11.77-.08,17.66,0,1.63.37,2.29,2.14,2.27s2.26-.45,2.22-2.18c-.09-4.65,0-9.23,0-13.82Zm17.4-4.9c.42-2-.43-2.52-2.41-2.57-2.22-.06-2.34,1-2.39,2.7s.56,2.38,2.39,2.41,2.88-.47,2.44-2.54Zm0,18.45c.42-2-.36-2.53-2.35-2.56s-2.43.77-2.45,2.6.53,2.4,2.37,2.38,3-.3,2.45-2.42Z"/><path class="cls-1" d="M178.16,395.68c2.45-5.87,5-11.71,7.3-17.63.82-2.09,1.65-2.87,4.1-2.34,5.82,1.26,5.84,1.09,4.84,6.84-1.2,6.88-2.48,13.75-3.45,20.67-.37,2.63-1.71,2.27-3.48,2s-2.79-.66-2.29-3c1.09-5,1.8-10,2.65-15a4.91,4.91,0,0,0-.32-3c-1,2.43-2.08,4.85-3.1,7.28-1.38,3.32-2.9,6.59-4,10-.68,2-1.76,2.39-3.57,1.9-1.6-.44-3.4-.12-3.45-2.93a203,203,0,0,0-1.6-20.47c-1,6.17-2.21,12.32-3.06,18.51-.38,2.79-1.2,3.77-4.13,2.88-1.58-.48-2.13-.89-1.84-2.54,1.47-8.35,2.86-16.72,4.29-25.08.07-.39.12-1,.34-1.1,2.49-.95,4.79.52,7.21.59,1.55,0,1.63,1.14,1.7,2.28q.45,8.07.91,16.15c.08,1.28.21,2.56.31,3.84Zm10.29-12.52-.21-.47c-.08.15-.22.3-.23.46a1.32,1.32,0,0,0,.19.46Z"/><path class="cls-4" d="M291.06,367c2.72,5,5.28,10.06,8.23,14.89,1.48,2.42-.32,2.59-1.55,3.37s-2.28,1.71-3.46-.48c-4-7.47-8.23-14.82-12.45-22.17-.72-1.26-.48-1.71.67-2.53,2.62-1.85,4.79-2.13,7.69-.13a125.65,125.65,0,0,0,16,9.11c-2.68-4.8-5.37-9.59-8-14.41-.45-.82-1.7-1.81-.94-2.56a12.89,12.89,0,0,1,4.08-2.39c.64-.28.89.66,1.16,1.14,4.26,7.55,8.48,15.14,12.78,22.68.68,1.19.36,1.63-.66,2.32-2.4,1.63-4.43,2.08-7.2.21-5.12-3.45-10.6-6.35-15.93-9.49l-.68-.15Z"/><path class="cls-1" d="M168.23,34.84c6.23,1.6,3.93,8.68,7.89,11.88a3.63,3.63,0,0,1-.84.51c-6.22,1.63-5.51,3.22-7.81-4.07-1.43-4.53-2.31-5-7-3.69s-4.6,1.28-3.26,6a21.51,21.51,0,0,0,.9,3.16c1.2,2.55.36,3.57-2.29,4.21-2,.48-2.75.3-3.31-1.78-2.09-7.9-4.33-15.76-6.64-23.6-.49-1.68-.4-2.44,1.5-2.89,3.88-.92,7.67-2.19,11.53-3.19,4.6-1.2,7.65-.26,9.87,2.86S171,30.71,168.23,34.84Zm-3.63-4.13c.07-3.06-2-4.88-5-4.23-1.75.39-3.44,1.05-5.19,1.39s-1.93,1-1.47,2.68c1.56,5.63,1.48,5.66,7.08,4a17.28,17.28,0,0,0,2.8-1,2.87,2.87,0,0,0,1.78-2.84Z"/><path class="cls-5" d="M149.66,373.76c-.15,9.27-7.16,17.42-14.88,17.32-8.08-.11-14.61-6.29-14.51-13.72.13-9.06,7.31-17.57,14.81-17.54C143.27,359.85,149.79,366.09,149.66,373.76Zm-6-.17c0-3.75-1.44-6.08-4.4-7.4a7,7,0,0,0-8.06,1.26,15,15,0,0,0-4.78,10.36,7.11,7.11,0,0,0,4.58,7.08,6.86,6.86,0,0,0,8-1.42,15.17,15.17,0,0,0,4.61-9.88Z"/><path class="cls-4" d="M332.22,93.32c-4.1.09-6.5-1-8.55-2.9-2.72-2.49-5.34-5.1-8.08-7.57-1.12-1-1.31-1.65-.16-2.85q8.82-9.15,17.46-18.48c1.11-1.2,1.75-1.11,2.82,0,2.68,2.68,5.54,5.18,8.2,7.88,4.13,4.21,4.77,8.85,1.72,13.89C342.29,88.76,337.73,92.7,332.22,93.32Zm-1.33-5.85c4.65-.72,7.89-4.26,10.17-8.77,2-3.9-1.08-6-3.42-8.34a15.23,15.23,0,0,1-1.3-1.24c-.83-1-1.46-.93-2.35,0-3.59,3.89-7.26,7.7-10.88,11.56-.38.41-.95.74-.68,1.5C323,83.75,328.31,87.42,330.89,87.47Z"/><path class="cls-4" d="M319.22,49.83c-.06,2.05-2.71,3.48-4.79,2.22-3-1.81-6.07-3.49-8.92-5.5-2.53-1.77-2.74.54-3.61,1.73s-1.9,2.52.43,3.72c2.68,1.32,5.11,3.13,7.71,4.61,1.59.91,2.73,1.48,1.31,3.73-1.29,2-2.16,2-3.9.76-2.46-1.71-5.17-3-7.63-4.75-1.67-1.15-2.41-.81-3.41.88-2.56,4.35-2.65,4.29,1.59,6.88,2.73,1.66,5.39,3.44,8.2,5,2,1.09.8,2.07.14,3.07s-.9,2.81-3,1.47c-5.22-3.32-10.54-6.5-15.86-9.66-1.24-.74-1.37-1.35-.61-2.57q6.76-11,13.39-22c.63-1.05,1.12-1.38,2.3-.64,5.16,3.23,10.39,6.36,15.58,9.54C318.63,48.53,319.3,48.69,319.22,49.83Z"/><path class="cls-4" d="M134.5,46.93c-.11,1-.93,1.1-1.5,1.41-2.89,1.58-5.77,3.18-8.73,4.63-1.54.75-2,1.36-1.1,3.11,2.54,4.66,2.44,4.72,7.23,2.18,2.55-1.36,5.22-2.56,7.64-4.13,2-1.31,2.49-.12,3.24,1.3s1.47,2.38-.66,3.43c-5.38,2.64-10.64,5.51-15.88,8.43-1.59.89-2.15.38-2.88-1Q116,55.12,110,44.06c-.78-1.45-.49-2,.88-2.7,5.24-2.69,10.48-5.4,15.61-8.29,2-1.1,2.21.24,2.75,1.36s1.94,2.21-.3,3.28c-3.51,1.68-6.85,3.72-10.35,5.43-2.85,1.38-.6,2.77-.08,4s.9,2.94,3.11,1.49a84.47,84.47,0,0,1,8.44-4.53c.74-.37,1.6-1.5,2.35-.7A16.75,16.75,0,0,1,134.5,46.93Z"/><path class="cls-5" d="M276.81,394.35c-1.08.35-1.77.49-2.4.78-2.74,1.29-4.89,1-6.08-2.12-.72-1.88-2.05-2.15-3.79-1.39a10,10,0,0,1-2.29.66c-3.81.66-6.51,1.84-6,6.78.24,2.57-3.18,2.22-4.93,2.51-2,.32-.91-1.8-.86-2.65.46-8.66,1.11-17.31,1.62-26,.09-1.4.42-2.4,1.93-2.43,1.9,0,3.91-2.65,5.66-.26C265.39,378.14,271,386.15,276.81,394.35Zm-19-17.15-.8.3v4.71c-.18,7.08-.19,7.08,6.49,4.39.08,0,.13-.13.33-.37C261.85,383.25,259.83,380.22,257.81,377.2Z"/><path class="cls-5" d="M112.51,351.43a5.55,5.55,0,0,1-.08,1c-.3,1.59-.07,3.72-2,4.18-1.55.37-4.11-3.51-3.75-5.3.49-2.47-.64-4.24-2.41-5.74a5.73,5.73,0,0,0-6.43-1,14.79,14.79,0,0,0-8.59,10.83c-.51,2.54.65,4.67,2.8,6.18a5.59,5.59,0,0,0,6.2.47c1.59-.82,5.53.62,6.1,2.22.4,1.13-.7,1.31-1.27,1.69-4,2.66-8.19,3.21-12.43.88-4.47-2.46-7.38-6.11-7.37-11.49,0-7.29,7-15.55,14.27-16.84S112.64,343.87,112.51,351.43Z"/><path class="cls-5" d="M108.31,74.2c0,7.54-7.89,13.73-15.28,12.06-8.43-1.9-15.3-12.35-13.16-20,2.19-7.83,11.9-12.12,18.42-8.16,1.61,1,2.22,1.77.29,3.17-1.69,1.23-2.83,2.41-5.41,1.26-4.06-1.81-8.85,3.11-7.65,7.72a15,15,0,0,0,8.09,9.89,5.93,5.93,0,0,0,7-1,5.55,5.55,0,0,0,1.81-6.45c-.48-1.45,2.24-5.19,3.68-5.18.77,0,.88.71,1.13,1.21A11.62,11.62,0,0,1,108.31,74.2Z"/><path class="cls-5" d="M210.83,382.65c-.28-5.81-.28-5.8,4-6.06,2.78-.16,5.56-.42,8.35-.54,5.85-.27,9.36,2.66,9.8,8.08.54,6.71-1.68,9.66-8,10.55-.89.13-1.78.25-2.67.31-4.65.33-4.66.32-4.24,5.11,0,.6.14,1.19.2,1.79.37,4,.37,3.92-3.66,4.19-1.67.11-2.21-.28-2.31-2C211.88,396.42,211.27,388.77,210.83,382.65Zm6.2,3.18c1.07,1.37-1.38,4.85,3.1,4.32,5.73-.67,7.17-1.56,6.87-5.19-.28-3.33-1.93-4-8-3.62-3.88.23-1.28,2.86-2,4.49Z"/><path class="cls-1" d="M258.8,38.73c-3.33-.81-6.36-1.48-9.34-2.29-1.62-.44-2.36,0-2.68,1.67-.5,2.65-1.35,5.23-1.78,7.89-.35,2.16-1.59,2-3,1.43s-3.82.35-3.08-2.69q3-12.36,5.89-24.76c.38-1.66,1.06-1.82,2.49-1.46,5.43,1.35,10.85,2.72,16.32,3.88,1.86.4,2,1.23,1.48,2.71-.45,1.28-.18,3.07-2.66,2.29-3.24-1-6.6-1.58-9.89-2.43-1.7-.44-3-.45-3,1.79a5.23,5.23,0,0,1-.43,1.74c-.75,1.87-.42,2.84,1.84,3.19,2.85.43,5.61,1.44,8.46,1.94,2,.34,1.52,1.44,1.14,2.58S260.65,39.1,258.8,38.73Z"/><path class="cls-4" d="M330.39,341.47c-.91-3.06-1.6-6.2-2.8-9.13-1-2.54-.71-4.29,1.6-5.75a24.53,24.53,0,0,0,2.51-2.15c1.08,4.21,2.33,8.08,3,12,1,5.62,3.2,10.44,7.64,14.06,2.14,1.73,1.14,2.73-.38,4.07s-2.54,2.51-4.13.12c-3.25-4.87-7.95-7.54-13.6-8.93-3.84-.95-7.52-2.5-11.75-3.94,1.62-1.49,3-2.68,4.32-4,1.06-1.08,2-.39,3,0,3.46,1.26,6.71,3.07,10.31,3.94l.32.32Z"/><path class="cls-1" d="M204,14.89c2-.44,3.75-.54,3.76,2.62,0,2.11-.72,2.46-2.53,2.57-6.13.36-6.17.42-5.79,6.68.3,5,.64,10,1.12,14.94.19,2.06-.09,3.23-2.54,3.07-1.83-.12-3.59.62-3.64-2.55-.1-6.09-.84-12.16-1.14-18.24-.12-2.33-.65-3.61-3.29-2.9-.85.23-1.81.05-2.68.22-2.39.48-3.3-.34-3.43-2.86-.11-2.11.89-2.27,2.41-2.37C192.12,15.7,198,15.29,204,14.89Z"/><path class="cls-4" d="M285.13,30.92c-.27.69-.45,1.15-.64,1.61-3.13,7.67-6.36,15.29-9.32,23-.92,2.4-2.12,1.82-3.6,1-1.28-.67-3.47-.44-2.22-3.28,3.35-7.68,6.38-15.49,9.53-23.25.38-.92.62-2.11,2-1.34S284.13,29.55,285.13,30.92Z"/><path class="cls-1" d="M223,44.64c-2.95.61-3.31-.9-3-3.51.78-7.82,1.49-15.66,1.93-23.51.18-3.32,2.22-2.12,3.89-2.2,1.93-.09,2.53.65,2.33,2.66q-1.17,12-2,24.1C225.9,44.35,225.27,45.34,223,44.64Z"/><path class="cls-2" d="M316.35,185.89a52.6,52.6,0,0,1-1.6,13.34c-3,12.76-10.85,20.72-23.41,24.36a54.88,54.88,0,0,1-28.13.87c-17.95-4.18-27.69-15.78-28.93-34.2a55.51,55.51,0,0,1,2.47-20.72c3.91-12.34,13.17-18.51,25.09-21.62A52.38,52.38,0,0,1,294.76,150c12.65,4.89,19.21,14.38,21,27.55A47.56,47.56,0,0,1,316.35,185.89Zm-27.81,1.5a70,70,0,0,0-1-13.48c-1-5-3.74-7.78-9.16-8.41-5.17-.6-10.26-.17-13.7,4.61a7.08,7.08,0,0,0-1.05,2.77,63.89,63.89,0,0,0,.15,25.84c1.12,5,4,7.38,9.78,8,6.39.64,11.58-1.57,13.35-5.77a10.25,10.25,0,0,0,.73-2.88C288,194.17,288.29,190.3,288.54,187.39Z"/><path class="cls-2" d="M213.29,152.45c-.87-3.71,1.13-4,3.92-3.88,3.38.19,6.79.1,10.19,0,1.55,0,2.09.45,2.07,2q-.1,10.8,0,21.59c0,1.46-.27,2.18-2,2.13-4.09-.11-8.19-.08-12.29,0a3,3,0,0,1-2.51-1.29c-6.68-7.67-15.49-9.72-25.16-9.5a3.36,3.36,0,0,0-1.18.15c-1.57.61-3.53,1-3.7,3s1.68,2.88,3.27,3.37c6.77,2.1,13.58,4.06,20.37,6.08,2.68.8,5.41,1.44,8,2.43,8.86,3.35,15.2,9.27,17.3,18.75A22.55,22.55,0,0,1,217.8,222.8c-11.46,4.69-22.85,3.68-34.14-.73-1-.4-2-.94-3-1.4-3.4-1.6-3.45-1.6-4,2-.15,1-.53,1.36-1.51,1.36-4.49,0-9-.05-13.49,0-1.43,0-1.62-.72-1.61-1.87V197.87c0-1.52.68-1.84,2-1.83,3.8.06,7.6.07,11.39,0a3,3,0,0,1,2.63,1.54c7.08,9.29,16.81,11.43,27.77,10.12a6.54,6.54,0,0,0,.86-.26c1.56-.45,3.34-.93,3.5-2.79s-1.67-2.61-3.15-3.09c-6.18-2-12.39-3.83-18.58-5.76-3.81-1.19-7.71-2.19-11.38-3.71-14.45-6-20.12-20.82-12.92-33.59,4.41-7.81,11.94-10.63,20.18-11.8a44.81,44.81,0,0,1,28.18,4.75c.53.28,1.09.5,1.64.73A7.3,7.3,0,0,0,213.29,152.45Z"/><path class="cls-2" d="M130.59,147.26c7.3,0,14.6.06,21.89,0,1.87,0,2.64.38,2.57,2.44-.15,4.7-.1,9.4,0,14.1,0,1.55-.45,2.14-2,2.06-2.3-.11-4.6,0-6.9,0-1.51-.07-2.09.36-2.08,2q.09,17.85,0,35.69c0,1.81.67,2.14,2.27,2.11,2.78,0,6.6-1,8.08.46,1.88,1.8.5,5.64.62,8.6.1,2.49-.06,5,.05,7.49.08,1.63-.55,2-2.08,2q-22.2-.06-44.39,0c-1.64,0-2.29-.38-2.25-2.15.12-4.8.11-9.6,0-14.39,0-1.67.61-2,2.11-2,2.29.09,4.6-.07,6.89,0,1.61.08,2-.5,2-2q-.08-17.85,0-35.69c0-1.76-.58-2.36-2.23-2.11h-.3c-2.75-.25-6.52,1.26-8-.64s-.43-5.35-.47-8.14c0-2.5.12-5,0-7.49-.13-1.92.59-2.34,2.38-2.32C116,147.31,123.29,147.26,130.59,147.26Z"/><path class="cls-6" d="M133.83,233c2.64-.77,4-.13,5.28,1.76a83.2,83.2,0,0,0,15.21,16.48c1.2,1,2,1.12,3.32.13,2.21-1.67,4.62-3.1,7-4.68-3.45-4.4-6.83-8.68-9.27-13.69,2.24-.82,3.53-.2,4.59,1.69a64.71,64.71,0,0,0,6.41,9c.87,1.1,1.61,1.42,3,.68a54,54,0,0,1,10.21-4.26c1.74-.52,2.31-1.28,1.33-3a6.92,6.92,0,0,1-.78-2.25c-.14-.73-1.3-1.75.13-2.19,1-.3,2.15-.43,2.8,1s.46,4.09,2.36,4.48c1.59.34,3.46-.67,5.22-1A77.07,77.07,0,0,1,204,235.51c1.29,0,2.7.23,2.52-1.88-.08-1,.83-.93,1.53-.93s1.56,0,1.5,1c-.14,2.13,1.35,1.77,2.6,1.82a70,70,0,0,1,16.28,2.38c2.42.7,3.48,0,3.95-2.25a7.8,7.8,0,0,1,.83-2.23c.63-1.12,1.81-.84,2.7-.62s.32,1.1.24,1.73c-.22,1.72-2.32,3.4-1.09,4.91.93,1.13,3.06,1.25,4.62,1.89a32.75,32.75,0,0,1,5.75,2.54c2.44,1.58,3.86.86,5.27-1.33,1.79-2.77,3.76-5.41,5.64-8.12.5-.73.79-1.69,1.9-1.69.68,0,1.57-.14,2,.22.72.59-.13,1.25-.44,1.79a70,70,0,0,1-7.35,10.57c-.91,1.06-1.15,1.72.33,2.42a24.61,24.61,0,0,1,3.06,1.88c4.54,3,4.52,2.94,8.49-.59A77.66,77.66,0,0,0,277,234.7c1.28-1.88,2.65-2.4,5.15-1.63-17.47,25.43-41.15,39.76-71.85,40.5C177.81,274.35,152.58,260,133.83,233Zm78.27,5.6c-1.32-.09-2.57-.35-2.53,1.78.11,5.7,0,11.4,0,17.1,0,.69-.1,1.52.87,1.61,2.51.23,5,1.25,7.4-.78,5.13-4.26,8.56-9.69,11.49-15.54.8-1.6-.36-1.62-1.28-1.84a93.32,93.32,0,0,0-16-2.29Zm-5.6,10.17c0-2.8-.07-5.6,0-8.4.05-1.48-.51-1.92-1.92-1.82A97.06,97.06,0,0,0,187.7,241c-.67.16-1.73.18-1.09,1.49,3.14,6.43,6.77,12.53,12.89,16.6,2,1.31,4.37.48,6.36-.2,1.33-.46.52-2.31.58-3.53.14-2.15.07-4.37.06-6.56Zm20.81,19.5c-11.37-8.43-29.91-7.25-38.16.07a86.52,86.52,0,0,0,38.16,0Zm-57.24-20.59a59.27,59.27,0,0,0,20.2,13.68,5.48,5.48,0,0,0,5.89-.71c-5.55-4.56-9.24-10.31-12.25-16.53-.54-1.1-1-1.88-2.43-1.34a72.54,72.54,0,0,0-11.41,4.94Zm76,0A91.59,91.59,0,0,0,235.31,243c-1.65-.64-2.44-.35-3.21,1.3a47.79,47.79,0,0,1-10.41,14.87c-.53.5-1.71.86-1.24,1.75.28.54,1.34.69,2.07,1a3.07,3.07,0,0,0,2.32-.19,58.18,58.18,0,0,0,21.26-14.05Zm11.26,6.93a53.81,53.81,0,0,0-7.11-4.77,1.41,1.41,0,0,0-2,.12l-.08.1a62.79,62.79,0,0,1-20.55,14.05c3.14,2.74,3.61,3.15,4.79,2.8a80.43,80.43,0,0,0,25-12.3Zm-98.51.07a92.33,92.33,0,0,0,22.07,11.49c3.26,1.25,5.38.31,7.57-2.08a69,69,0,0,1-16.11-9.8c-2-1.58-3.34-5-6.07-4.45-2.54.52-4.72,2.81-7.05,4.33,0,.05-.1.15-.38.51Z"/><path class="cls-7" d="M281.75,138.8c-2.37.71-3.69-.14-4.93-2A83.22,83.22,0,0,0,262.28,121c-1.43-1.24-2.41-1.3-3.78-.09-2,1.77-5.84,2.48-6.16,4.66-.28,1.83,2.73,4.1,4.18,6.24s2.87,4.52,4.37,6.89c-2.4.81-3.71.18-4.88-1.8-1.67-2.82-3.8-5.37-5.66-8.09-1-1.44-1.86-1.84-3.63-.94a85.36,85.36,0,0,1-10.22,4.26c-1.7.6-2,1.27-1.2,2.76a6.42,6.42,0,0,1,.69,2c.1.7,1.4,1.72-.22,2.1-1,.23-2.16.45-2.78-1s-.36-3.55-2.18-3.87c-1.36-.24-2.9.53-4.36.86a93.79,93.79,0,0,1-14.55,1.91c-1,.07-1.94-.13-2.46,1.44a1.46,1.46,0,0,1-1.87.91,1.48,1.48,0,0,1-.95-1.05c-.46-1.45-1.31-1.23-2.24-1.29a81.92,81.92,0,0,1-17.74-2.68c-2.23-.64-2.6.72-3,2.19-.55,2.18-1.55,3.44-4,2.36a1.41,1.41,0,0,1,0-.29c.14-2,2.39-4,1.28-5.5-1-1.35-3.54-1.55-5.38-2.31a36.33,36.33,0,0,1-5.73-2.57c-2-1.27-3.17-.67-4.33,1.07-1.72,2.58-3.7,5-5.29,7.63-1.13,1.89-2.37,2.83-4.82,2,2.38-4.89,5.67-9.1,9-13.36-2.55-1.71-5.09-3.29-7.49-5.07-1.29-1-1.94-.2-2.79.5a78.89,78.89,0,0,0-14.8,16c-1.24,1.83-2.58,2.63-5.28,1.83,16.78-24.47,39.47-38.4,69-40.33C238.65,96,268.16,116,281.75,138.8Zm-72.14-15.35c0,2.7.06,5.4,0,8.1,0,1.47.27,2.15,2,2.09a89.9,89.9,0,0,0,16.88-2.41c1.19-.27,1.81-.5,1.11-1.93A52.86,52.86,0,0,0,219,114.2c-2.77-2.69-5.73-1.61-8.39-.92-2,.52-.67,3.12-.86,4.77A46.35,46.35,0,0,0,209.61,123.45Zm-3.11-.09V115c0-.64.24-1.37-.59-1.83-1.89-1-6.66-.59-8.4.9-4.88,4.16-8.11,9.5-10.9,15.17-.63,1.29-.33,1.67,1,2a113.21,113.21,0,0,0,15.32,2.38c2.78.26,4-.29,3.65-3.37A58.64,58.64,0,0,1,206.5,123.36Zm21.1-19.55c-10.5-3.23-30.33-3.16-38.83,0,9,8.11,28.23,8.19,38.83,0Zm-7.16,7.64c5.34,4.56,8.93,10.17,11.79,16.26.77,1.63,1.45,2.34,3.29,1.5,2.91-1.31,5.88-2.47,8.85-3.64,1.72-.67,2.14-1.28.53-2.78a64.48,64.48,0,0,0-17.8-12c-2.28-1-4.33-1.13-6.66.66Zm-50.75,12.93a71.57,71.57,0,0,0,11.73,5.06c1.12.41,1.6.09,2.05-.9a50.88,50.88,0,0,1,12.41-17.37c-1.89-.5-3.12-1.71-4.86-1.06a58.16,58.16,0,0,0-21.33,14.27ZM188,107.87c-3.74-3.24-3.75-3.26-7.73-1.85a82.15,82.15,0,0,0-12,5.28,71,71,0,0,0-9.93,6.32c2.4,1.56,4.52,2.86,6.56,4.29,1.3.9,2.16.72,3.28-.42A61.66,61.66,0,0,1,188,107.87Zm40.2,0a70.28,70.28,0,0,1,15.81,9.8c2,1.62,3.37,5.08,6.05,4.6,2.53-.44,4.73-2.78,7.07-4.3.14-.09.2-.3.39-.6a88.45,88.45,0,0,0-21.27-11.3c-3.11-1.19-5.68-1.26-8.05,1.82Z"/><path class="cls-7" d="M124.3,295.46c-4.81,3.4-9.64,3.58-13.29.72-3.38-2.66-4.59-7.89-2.86-12.6a9.29,9.29,0,0,1,8.85-6.46c4.18-.21,8,1.08,9.68,5.13a24.52,24.52,0,0,1-1.77,23.47c-2.3,3.7-6.21,4.42-10.35,3.6a7.76,7.76,0,0,1-6.42-5.93c-.2-.72-1.09-2,.31-2.22,1.07-.2,2.8-1,3.35.75.93,3,2.79,4.6,5.93,4.27s4.67-2.74,5.58-5.53A15.38,15.38,0,0,0,124.3,295.46Zm-.43-7.55c.1-4.41-2-7-5.87-7.14s-6.27,2.53-6.37,6.74c-.1,4.59,1.83,6.89,5.87,7S123.76,292.31,123.87,287.91Z"/><path class="cls-8" d="M157,293.63a26.79,26.79,0,0,1,1.9-10.51c1.73-3.82,4.64-6,8.86-6a8.94,8.94,0,0,1,9,5.77,26.69,26.69,0,0,1,0,21c-1.61,3.88-4.77,5.8-9,5.75s-7.11-2.23-8.85-6C157.52,300.52,157.21,297.24,157,293.63Zm4.41-.52a21.61,21.61,0,0,0,1.35,9.11c1,2.29,2.6,3.73,5.27,3.68a5,5,0,0,0,4.94-3.67,26.38,26.38,0,0,0,.07-17.58,5.17,5.17,0,0,0-5.13-3.86c-2.64,0-4.23,1.52-5.19,3.81a20.93,20.93,0,0,0-1.28,8.51Z"/><path class="cls-8" d="M153.8,293.22a24.11,24.11,0,0,1-1.8,10.24c-1.67,3.82-4.53,6-8.77,6.14a9,9,0,0,1-9.2-5.9A26.67,26.67,0,0,1,134,283a9,9,0,0,1,9-5.89c4.22,0,7.19,2.11,8.93,5.91A23.1,23.1,0,0,1,153.8,293.22Zm-4.26.31a22.89,22.89,0,0,0-1.47-9.08c-.94-2.19-2.49-3.6-5-3.64a5.15,5.15,0,0,0-5.22,3.74,26,26,0,0,0,0,17.58,5.15,5.15,0,0,0,5.18,3.78c2.71,0,4.22-1.61,5.16-3.86a22.3,22.3,0,0,0,1.35-8.52Z"/><path class="cls-8" d="M266.05,293.32a23.43,23.43,0,0,1-1.92,10.51,9.22,9.22,0,0,1-9,5.76,9,9,0,0,1-8.85-6,26.87,26.87,0,0,1,0-20.43,9.09,9.09,0,0,1,9.1-6.08c4.22,0,7.13,2.18,8.87,6A23.8,23.8,0,0,1,266.05,293.32Zm-4.28,0a21.73,21.73,0,0,0-1.27-8.53c-.93-2.44-2.59-4.05-5.35-4a5.29,5.29,0,0,0-5.11,3.94,26.12,26.12,0,0,0,0,17.32,5.17,5.17,0,0,0,5.13,3.86c2.83,0,4.39-1.63,5.32-4a21.59,21.59,0,0,0,1.28-8.58Z"/><path class="cls-6" d="M299.45,289.91a12.54,12.54,0,0,1,7.71-1.46,9.93,9.93,0,0,1,8.6,10c0,5.83-3.27,10-8.63,10.92-6.27,1.07-11-1.16-12.51-6-.25-.8-1.28-2.1.32-2.38,1.13-.2,2.64-.91,3.56,1a6.73,6.73,0,0,0,8.77,3.69l.12-.05c3.12-1.25,4.77-5.16,3.74-8.85-1.27-4.49-6.63-6.23-10.68-3.45-.57.4-1,1-1.6,1.35a3.35,3.35,0,0,1-2.9.09c-1.16-.42-.53-1.57-.43-2.36.53-4.16,1.2-8.31,1.71-12.47.18-1.54.67-2.29,2.4-2.24,4.09.11,8.19.08,12.29,0,1.48,0,2.11.34,2.15,2,.05,1.85-.74,2.14-2.31,2.09-3-.09-6,.08-9-.06-1.69-.09-2.32.57-2.48,2.13C300.1,285.69,299.78,287.55,299.45,289.91Z"/><path class="cls-9" d="M229.83,308.72c-3,0-6-.06-9,0-1.5,0-1.9-.51-1.73-1.93a13.17,13.17,0,0,1,6.3-10c2.62-1.65,5.37-3.1,7.93-4.83a6.45,6.45,0,0,0,2.36-8.16c-1.23-2.44-4.4-3.59-7.57-2.74-2.73.74-3.91,2.86-4.05,5.35s-1.56,2.14-3,2c-2.14-.13-1.22-1.75-1.08-2.7,1-6.43,6.7-9.9,13.47-8.28,5.5,1.32,8.39,6.49,6.78,12a9.45,9.45,0,0,1-4.15,5.32c-2.09,1.36-4.3,2.53-6.48,3.76a15.62,15.62,0,0,0-4.13,2.94c-.77.85-2,1.78-1.45,3,.45,1,1.82.41,2.77.42,4,.05,8,.06,12,0,1.38,0,2,.4,1.94,1.87s-.4,2-1.87,1.93C235.83,308.67,232.83,308.73,229.83,308.72Z"/><path class="cls-8" d="M283.89,293.12c0,4.49-.07,9,0,13.46,0,1.72-.53,2.19-2.21,2.21s-2.16-.62-2.14-2.26c.08-5.88,0-11.76.07-17.64,0-1.94-.47-2.77-2.5-2.51a29.91,29.91,0,0,1-3.28,0c-1,0-1.76-.18-1.75-1.43,0-1.09.06-2,1.5-2,3.29-.07,5.84-1.26,6.74-4.74.35-1.35,1.4-1.19,2.4-1.15,1.4.06,1.12,1.14,1.13,2C283.9,283.75,283.89,288.44,283.89,293.12Z"/><path class="cls-9" d="M196.51,292.83c0,4.59-.08,9.18,0,13.77,0,1.73-.55,2.17-2.22,2.18s-2.16-.64-2.14-2.27c.08-5.89-.05-11.78.08-17.66,0-2-.53-2.71-2.49-2.47a25.8,25.8,0,0,1-3.29,0c-1.09,0-1.64-.4-1.59-1.57,0-.94,0-1.85,1.32-1.86,3.45,0,6-1.41,6.94-4.94.33-1.21,1.33-1,2.21-1,1.42,0,1.13,1.13,1.14,2C196.52,283.65,196.51,288.24,196.51,292.83Z"/><path class="cls-10" d="M213.91,287.93c.44,2-.44,2.57-2.41,2.54s-2.44-.56-2.39-2.41.17-2.76,2.39-2.7C213.48,285.41,214.33,285.92,213.91,287.93Z"/><path class="cls-10" d="M213.9,306.38c.5,2.12-.62,2.39-2.43,2.42s-2.38-.57-2.37-2.38.35-2.64,2.45-2.6S214.32,304.41,213.9,306.38Z"/><path class="cls-2" d="M188.45,383.16l-.25.45a1.32,1.32,0,0,1-.19-.46c0-.16.15-.31.23-.46Z"/><path class="cls-2" d="M291.06,367l-.29-.59.68.15A4.09,4.09,0,0,1,291.06,367Z"/><path class="cls-9" d="M164.6,30.71a2.88,2.88,0,0,1-1.76,2.87,17.28,17.28,0,0,1-2.8,1c-5.6,1.63-5.52,1.6-7.08-4-.46-1.64-.27-2.35,1.47-2.68s3.44-1,5.19-1.39C162.57,25.83,164.67,27.65,164.6,30.71Z"/><path class="cls-11" d="M143.61,373.59a15.16,15.16,0,0,1-4.64,9.88,6.86,6.86,0,0,1-8,1.42,7.11,7.11,0,0,1-4.58-7.08,15,15,0,0,1,4.78-10.36,7,7,0,0,1,8.06-1.26C142.17,367.51,143.58,369.84,143.61,373.59Z"/><path class="cls-11" d="M330.89,87.47c-2.58,0-7.93-3.72-8.46-5.25-.27-.76.3-1.09.68-1.5,3.62-3.86,7.29-7.67,10.88-11.56.89-1,1.52-1.08,2.35,0a15.23,15.23,0,0,0,1.3,1.24c2.34,2.3,5.39,4.44,3.42,8.34C338.78,83.21,335.54,86.75,330.89,87.47Z"/><path class="cls-10" d="M257.81,377.2c2,3,4,6.05,6,9-.2.24-.25.34-.33.37-6.68,2.69-6.67,2.69-6.49-4.39v-4.71Z"/><path class="cls-9" d="M217,385.83c.69-1.63-1.91-4.26,2-4.49,6-.35,7.68.29,8,3.62.3,3.63-1.14,4.52-6.87,5.19C215.65,390.68,218.1,387.2,217,385.83Z"/><path class="cls-2" d="M330.39,341.47v.62l-.32-.32Z"/><path class="cls-12" d="M288.54,187.39c-.25,2.91-.55,6.78-.94,10.65a10.25,10.25,0,0,1-.73,2.88c-1.77,4.2-7,6.41-13.35,5.77-5.81-.59-8.66-3-9.78-8a63.89,63.89,0,0,1-.15-25.84,7.08,7.08,0,0,1,1.05-2.77c3.44-4.78,8.53-5.21,13.7-4.61,5.42.63,8.19,3.43,9.16,8.41A70.28,70.28,0,0,1,288.54,187.39Z"/><path class="cls-5" d="M212.1,238.64a94,94,0,0,1,16,2.33c.92.22,2.08.24,1.28,1.84-2.93,5.85-6.36,11.28-11.49,15.54-2.45,2-4.89,1-7.4.78-1-.09-.87-.92-.87-1.61,0-5.7.07-11.4,0-17.1C209.53,238.29,210.78,238.55,212.1,238.64Z"/><path class="cls-13" d="M206.5,248.81c0,2.2.08,4.41,0,6.6-.06,1.22.75,3.07-.58,3.53-2,.68-4.38,1.51-6.36.2-6.12-4.07-9.75-10.17-12.89-16.6-.64-1.31.42-1.33,1.09-1.49a97.06,97.06,0,0,1,16.88-2.46c1.41-.1,2,.34,1.92,1.82C206.43,243.21,206.5,246,206.5,248.81Z"/><path class="cls-5" d="M227.31,268.31a86.37,86.37,0,0,1-38.16.07C197.4,261.06,215.94,259.88,227.31,268.31Z"/><path class="cls-5" d="M170.07,247.72a71.83,71.83,0,0,1,11.41-4.9c1.44-.54,1.89.24,2.43,1.34,3,6.22,6.7,12,12.25,16.53a5.48,5.48,0,0,1-5.89.71A59.27,59.27,0,0,1,170.07,247.72Z"/><path class="cls-5" d="M246.1,247.68a58.25,58.25,0,0,1-21.26,14.08,3.07,3.07,0,0,1-2.32.19c-.73-.3-1.79-.45-2.07-1-.47-.89.71-1.25,1.24-1.75a47.79,47.79,0,0,0,10.41-14.87c.77-1.65,1.56-1.94,3.21-1.3A91.83,91.83,0,0,1,246.1,247.68Z"/><path class="cls-4" d="M257.36,254.61a80.27,80.27,0,0,1-24.93,12.3c-1.18.35-1.65-.06-4.79-2.8a62.79,62.79,0,0,0,20.55-14.05,1.4,1.4,0,0,1,2-.3l.1.08A53.81,53.81,0,0,1,257.36,254.61Z"/><path class="cls-5" d="M158.85,254.68c.28-.36.33-.46.41-.51,2.33-1.52,4.51-3.81,7.05-4.33,2.73-.56,4.07,2.87,6.07,4.45a69,69,0,0,0,16.11,9.8c-2.19,2.39-4.31,3.33-7.57,2.08A92.33,92.33,0,0,1,158.85,254.68Z"/><path class="cls-13" d="M209.61,123.45a44.22,44.22,0,0,1,0-5.4c.19-1.65-1.14-4.25.86-4.77,2.66-.69,5.62-1.77,8.39.92a52.86,52.86,0,0,1,10.63,15.1c.7,1.43.08,1.66-1.11,1.93a89.9,89.9,0,0,1-16.88,2.41c-1.7.06-2-.62-2-2.09C209.67,128.85,209.61,126.15,209.61,123.45Z"/><path class="cls-13" d="M206.51,123.36a56.24,56.24,0,0,0,.05,6.87c.39,3.08-.87,3.63-3.65,3.37a113.21,113.21,0,0,1-15.32-2.38c-1.32-.31-1.62-.69-1-2,2.79-5.67,6-11,10.9-15.17,1.74-1.49,6.51-1.94,8.4-.9.83.46.58,1.19.59,1.83C206.52,117.79,206.5,120.58,206.51,123.36Z"/><path class="cls-1" d="M227.6,103.81c-10.56,8.2-29.82,8.11-38.83,0C197.27,100.65,217.1,100.58,227.6,103.81Z"/><path class="cls-5" d="M220.44,111.45c2.33-1.79,4.38-1.64,6.66-.62a64.48,64.48,0,0,1,17.8,12c1.61,1.5,1.19,2.11-.53,2.78-3,1.17-5.94,2.33-8.85,3.64-1.84.84-2.52.13-3.29-1.5C229.37,121.62,225.78,116,220.44,111.45Z"/><path class="cls-5" d="M169.69,124.38A58.12,58.12,0,0,1,191,110.11c1.74-.65,3,.56,4.86,1.06a50.88,50.88,0,0,0-12.41,17.37c-.45,1-.93,1.31-2,.9A71.37,71.37,0,0,1,169.69,124.38Z"/><path class="cls-5" d="M188,107.87a61.63,61.63,0,0,0-19.85,13.62c-1.12,1.14-2,1.32-3.28.42-2-1.43-4.16-2.73-6.56-4.29a71,71,0,0,1,9.93-6.32,82.15,82.15,0,0,1,12-5.28C184.25,104.61,184.26,104.63,188,107.87Z"/><path class="cls-5" d="M228.2,107.89c2.37-3.08,4.94-3,8.05-1.8a88.45,88.45,0,0,1,21.27,11.3c-.19.3-.25.51-.39.6-2.34,1.52-4.54,3.86-7.07,4.3-2.68.48-4-3-6.05-4.6A70.28,70.28,0,0,0,228.2,107.89Z"/><path class="cls-13" d="M123.87,287.91c-.11,4.4-2.31,6.69-6.37,6.59s-6-2.4-5.87-7c.1-4.21,2.63-6.89,6.37-6.74S124,283.5,123.87,287.91Z"/><path class="cls-13" d="M161.44,293.11a20.93,20.93,0,0,1,1.31-8.51c1-2.29,2.55-3.83,5.19-3.81a5.17,5.17,0,0,1,5.13,3.86,26.38,26.38,0,0,1-.07,17.58,5,5,0,0,1-4.94,3.67c-2.67.05-4.29-1.39-5.27-3.68A21.61,21.61,0,0,1,161.44,293.11Z"/><path class="cls-13" d="M149.54,293.54a22.42,22.42,0,0,1-1.36,8.51c-.94,2.25-2.45,3.84-5.16,3.86a5.15,5.15,0,0,1-5.18-3.78,26,26,0,0,1,0-17.58,5.15,5.15,0,0,1,5.22-3.74c2.5,0,4,1.45,5,3.64A23.1,23.1,0,0,1,149.54,293.54Z"/><path class="cls-13" d="M261.77,293.33a21.54,21.54,0,0,1-1.26,8.53c-.93,2.41-2.49,4.06-5.32,4a5.17,5.17,0,0,1-5.13-3.86,26.12,26.12,0,0,1,0-17.32,5.29,5.29,0,0,1,5.11-3.94c2.76,0,4.42,1.58,5.35,4A21.64,21.64,0,0,1,261.77,293.33Z"/></g></g></g></svg>