<svg xmlns="http://www.w3.org/2000/svg" viewBox="0 0 1909.06 842.88"><defs><style>.cls-1{fill:#46bceb;}.cls-2{fill:#fff;}.cls-3{fill:#48bdec;}</style></defs><title>logo-stahl-white</title><g id="Layer_2" data-name="Layer 2"><g id="Layer_1-2" data-name="Layer 1"><path class="cls-1" d="M0,422.77H17.27c66,0,132,.1,197.94-.16,7,0,10.84,2,14.4,8.23C256.82,478.71,284.48,526.33,312,574c1,1.67,2.12,3.23,3.77,5.72,9.51-16.42,18.68-32.2,27.8-48,19.45-33.73,39-67.42,58.22-101.26,3.25-5.72,7-7.89,13.78-7.87,68.77.28,137.53.16,206.3.22,2.64,0,6.28-1.37,7.7,1.1s-1.67,4.95-3,7.26q-94.22,163.35-188.4,326.7c-3.17,5.51-6.58,7.66-13.07,7.64q-109.83-.37-219.66,0c-5.73,0-9-1.71-11.88-6.71q-63-109.6-126.28-219Q35.2,484.11,3.09,428.46C2.29,427.06,1.56,425.63,0,422.77Z"/><path class="cls-1" d="M768.3.14c36.48,0,73,.13,109.45-.14,5.76,0,9,1.75,11.87,6.72q93.72,162.77,187.7,325.36c.28.48.55,1,.82,1.45,5.06,9.16,5.06,9.19-5.12,9.19H907.58c-14.2,0-28.41-.16-42.61.1-4.71.08-7.49-1.33-9.92-5.58-27.64-48.3-55.59-96.42-83.2-144.74-3.43-6-5.09-5.78-8.37-.08C736,240.19,708.33,287.8,681,335.66c-3.06,5.36-6.27,7.22-12.33,7.2-69.07-.21-138.14-.13-207.21-.14-9.36,0-9.54-.16-4.9-8.21q60-104.13,120.21-208.19C600,86.09,623.37,45.92,646.44,5.59c2.45-4.28,5.19-5.56,9.87-5.54C693.66.21,731,.14,768.3.14Z"/><path class="cls-2" d="M1670,567.32c0,44-.1,88,.12,132,0,5.55-.95,7.71-7.12,7.53-16.14-.47-32.3-.39-48.45,0-5.51.12-7-1.46-7-7,.27-30.91-.11-61.83.31-92.74.09-7.13-2.07-8.7-8.86-8.62-30.35.37-60.72.3-91.07,0-5.55,0-6.93,1.54-6.89,7,.27,31.19-.06,62.39.29,93.58.07,6.26-1.48,8-7.77,7.75-15.86-.49-31.75-.34-47.62-.06-5.12.1-7.19-.87-7.18-6.7q.29-133.27,0-266.54c0-5.39,1.7-6.43,6.63-6.34,16.43.28,32.87.41,49.29-.05,6-.17,6.6,2.18,6.57,7.16-.17,35.09.1,70.19-.25,105.28-.07,6.61,1.7,8.28,8.24,8.2q45.52-.54,91.07,0c5.8.05,7.54-1.48,7.5-7.41-.28-35.09,0-70.18-.28-105.27,0-6,1.06-8.18,7.62-7.95,15.86.54,31.75.46,47.62,0,5.84-.16,7.35,1.42,7.32,7.28C1669.85,478.75,1670,523,1670,567.32Z"/><path class="cls-2" d="M830.35,427.33c20.58,0,41.17.16,61.74-.12,5.33-.07,7.32,1.17,7.13,6.9-.43,13.07-.59,26.19,0,39.25.35,7.34-2.62,8-8.69,7.46-30.48-2.52-61-4.73-91.59-4.7-9.55,0-18.81,1.55-27.22,6.45-16.45,9.6-17.84,30.95-2.68,42.47,6.25,4.75,13.49,7.54,20.88,10.1,23.57,8.18,47.63,14.91,70.65,24.66,24,10.15,42.86,25.14,47.13,52.59,7.14,45.92-14.49,80.56-60.32,92.29-54.13,13.84-106.28,7.09-155-21.7-5.21-3.08-6.17-5.59-3-11,6.84-11.73,13.15-23.79,19.25-35.92,2.22-4.41,4-4.54,7.91-2,24.09,15.87,50.17,26,79.4,26.73,11.45.27,22.74-.51,33.22-5.85,19.71-10,22.11-32.39,4.91-46.32-6.12-5-13.28-8-20.69-10.48-19.16-6.45-38.74-11.63-57.49-19.3A166.93,166.93,0,0,1,729.33,565c-26.87-17.11-37.54-41.9-33.07-72.78,4.67-32.25,24.47-51.91,55.21-61,19.76-5.87,40.13-5.29,60.43-5.14h18.39A8.45,8.45,0,0,1,830.35,427.33Z"/><path class="cls-3" d="M1267.89,427.6c5.56,0,11.21.59,16.68-.13,9.47-1.25,13.91,2.26,17.49,11.45,33.56,86.24,67.73,172.24,101.74,258.3,3.72,9.4,3.72,9.45-6.65,9.47-13.92,0-27.84-.16-41.75.09a16.5,16.5,0,0,1-12-4.48c-36.89-31.72-74-63.17-110.86-94.94-4.68-4-6-3.52-8.14,2.11-11.34,30.18-23.21,60.16-34.56,90.33-2,5.31-4.59,7.21-10.29,7-14.19-.43-28.4-.36-42.59,0-6.38.14-7.67-1.44-5.24-7.59,17.12-43.42,33.93-87,50.9-130.47,17.48-44.78,35.15-89.49,52.37-134.38,2.11-5.5,4.79-7.18,10.31-6.86C1252.83,427.93,1260.37,427.6,1267.89,427.6Zm.36,70.48a47.44,47.44,0,0,0-2.73,5c-11.31,29.28-22.44,58.64-34,87.84-2.26,5.71,1.26,6.78,4.75,8.47q28.15,13.68,56.32,27.28c9.53,4.58,19.15,9,30.68,14.35-18.82-48.93-36.77-95.53-55-142.94Z"/><path class="cls-2" d="M1038.77,427.33c35.66,0,71.31.12,107-.12,5.73,0,7.7,1.4,7.5,7.37-.43,13.35-.36,26.74,0,40.1.13,5.18-1.52,6.59-6.62,6.54-23.39-.25-46.79.12-70.18-.27-6.38-.1-8.25,1.37-8.23,8.06.28,69.63,0,139.26.37,208.89,0,7.43-1.79,9.31-9.1,9-14.73-.63-29.54-.74-44.26,0-7.84.41-8.85-2.36-8.83-9.27.26-69.35,0-138.7.32-208.06,0-6.75-1.28-8.87-8.45-8.7-22.27.54-44.57,0-66.84.33-6.22.1-8.82-1-8.46-8a356.88,356.88,0,0,0,0-37.58c-.4-7.36,2.28-8.5,8.9-8.44C967.47,427.5,1003.12,427.33,1038.77,427.33Z"/><path class="cls-2" d="M1730.61,567.36c0-44,.14-87.95-.16-131.92,0-6.65,1.78-8.47,8.33-8.27,15.29.48,30.62.54,45.91,0,7.08-.26,9.2,1.28,9.16,8.88-.36,69.3,0,138.6-.44,207.9-.05,8.38,2.34,9.76,10,9.65,32.55-.47,65.12,0,97.68-.39,6.86-.09,8.16,2.1,8,8.31-.46,13.07-.33,26.16,0,39.24.1,4.65-1.17,6.1-6,6.08q-83.08-.24-166.16,0c-6.39,0-6.38-3-6.37-7.59Q1730.69,633.31,1730.61,567.36Z"/><path class="cls-2" d="M1009.76,787.73v47.9c0,2.93.88,6.47-4.19,6.2-4.4-.24-3.62-3.39-3.63-6.05,0-19.21-.07-38.41.07-57.62,0-2.1-1.66-5.27,2.25-6.1,3.28-.7,5,1.19,6.8,3.6q15.72,21.55,31.61,43a15.4,15.4,0,0,0,6.78,5.61c0-13.73-.35-27.47.24-41.17.15-3.62-4.33-11.05,3.81-10.72,6.8.27,2.9,7.07,3,10.61.48,17.52.28,35.06.14,52.6,0,2.11,1.58,5.31-2.13,6.14-3,.67-4.47-1.72-6-3.72l-37.21-50.25C1011.25,787.63,1010.88,787.73,1009.76,787.73Z"/><path class="cls-2" d="M1258.49,785.6c0,17.74.09,33.17-.08,48.6,0,2.86,2,7.37-3.64,7.59-6.45.26-4.06-4.83-4.1-7.81-.2-17.82-.24-35.64.06-53.46,0-2.75-2.65-7,2.23-8.42,4.62-1.31,6.08,2.86,8.14,5.65q16.41,22.11,32.74,44.26c.77,1,1.57,2,3.83,5,0-17.87-.05-33.53,0-49.2,0-2.18-1.32-5.37,2.72-5.79,3-.32,5.27-.16,5.23,4.12-.19,20.32-.07,40.65-.11,61,0,1.81.61,4.08-2.23,4.63-3.06.59-4.51-1.48-6-3.53q-17.57-23.84-35.16-47.66C1261.39,789.54,1260.65,788.54,1258.49,785.6Z"/><path class="cls-2" d="M689,806.7a35.55,35.55,0,0,1-35.08,36h-.69c-20.5.11-36.28-15.8-36.18-36.48A36,36,0,0,1,689,804c0,.88,0,1.77,0,2.65ZM652.93,836c16.2.06,28.81-12.66,28.88-29.11.06-16.28-12.77-29.65-28.57-29.76s-28.75,13.24-28.91,29.46a28.81,28.81,0,0,0,28.2,29.4Z"/><path class="cls-2" d="M951.21,842.75a36.26,36.26,0,0,1-36.19-36c0-19.92,16.91-36.55,36.92-36.29,19.57.26,36,17.1,35.78,36.59A36.28,36.28,0,0,1,951.21,842.75Zm28.68-36.29c-.08-16.46-12.81-29.49-28.7-29.37-15.7.12-28.41,13.51-28.34,29.86.08,16.6,12.54,29.14,28.83,29S980,823.31,979.89,806.46Z"/><path class="cls-2" d="M1616.86,812.83c5,7.47,10.16,15,15,22.66,1.05,1.69,5,3.7,1.63,5.94-2.32,1.53-5.21.16-7-2.64-5-7.68-10.26-15.19-15.24-22.89a8.67,8.67,0,0,0-7.32-4.34c-6.85-.64-9.53,1.44-8.73,8.6.65,5.77.08,11.68.14,17.52,0,2.64-.73,4.09-3.75,4.18-3.31.1-3.51-1.75-3.51-4.19,0-20.6.09-41.2,0-61.8,0-3.7,1.76-4,4.62-3.91,8.07.11,16.15-.14,24.21.1a18.24,18.24,0,0,1,18,15.5c1.65,10.8-3.06,19.61-12.3,22.82C1620.66,811,1618.56,810.82,1616.86,812.83Zm-21.62-21.27c0,13.88,0,13.89,13.77,13.88a51.59,51.59,0,0,0,7.46-.12c5.37-.8,9-3.73,10.47-9.2,2.8-10.2-2.5-17.54-13-17.85C1595.24,777.74,1595.24,777.74,1595.24,791.56Z"/><path class="cls-2" d="M1325.67,806.3V777.06c0-2.36-.79-5.22,3.35-5.09,8.61.28,17.41-.67,25.82.74,18,3,28.88,18.39,27.51,37s-15.14,31.24-35.13,32.08c-21.57.9-21.57.9-21.57-20.47Zm7.2.84v13.37c0,16.82.21,17,17,14.87,13.43-1.7,23-10.86,24.47-23.41,1.88-16-4.45-27.65-17.46-32.28-5.4-1.92-11-1-16.53-1.49s-8,1.1-7.58,7.23C1333.28,792.63,1332.87,799.9,1332.87,807.14Z"/><path class="cls-2" d="M1404.21,797.94c0,6.68-.21,13.36.06,20,.43,11.1,8.12,18,19.68,17.94,11.17,0,18.64-6.65,19-17.69.37-13.33.09-26.69.18-40,0-2.81-1.15-6.29,4-6.3,5.34,0,3.82,3.67,3.84,6.34.11,12.52.16,25,0,37.54-.18,16.4-10.21,26.62-26.32,27s-27.4-9-28.21-25.13c-.69-13.6-.14-27.25-.19-40.87,0-2.7,0-4.77,3.78-4.93,4.29-.2,4.24,2.21,4.2,5.22C1404.13,784,1404.19,791,1404.21,797.94Z"/><path class="cls-2" d="M1794.78,806.68c0-9.73.19-19.46-.09-29.18-.13-4.32,1.08-5.74,5.56-5.62,11.39.33,22.79.06,34.19.16,1.91,0,4.74-1.16,4.83,2.65s-2.38,3.65-5,3.64c-8.89-.05-17.79.19-26.68-.11-4.29-.15-5.55,1.08-5.67,5.51-.57,20.48-.73,20.47,19.81,20.47h11.68c2.31,0,3.54.91,3.6,3.45.06,3-1.94,2.83-3.87,2.84-8.62,0-17.24.16-25.85-.06-3.73-.1-5.19.64-5.38,4.9-.88,20.15-1,20.15,19.25,20.15,4.45,0,8.9-.09,13.34,0,2,0,4.76-1.08,4.78,2.72,0,3-1.6,3.61-4.23,3.59-12-.08-23.91-.17-35.86,0-4,.07-4.46-2-4.43-5.18C1794.84,826.7,1794.78,816.69,1794.78,806.68Z"/><path class="cls-2" d="M1076.77,806.48c0-9.47.2-18.94-.09-28.39-.14-4.48.84-6.4,5.84-6.24,11.4.36,22.82,0,34.24.17,1.86,0,4.77-1.27,5,2.5s-2.21,3.86-4.9,3.85c-8.63,0-17.27.18-25.89-.09-4.35-.13-6.29.63-6.4,5.75-.44,20.12-.65,20.12,19.51,20.12,3.62,0,7.24.11,10.85,0,2.75-.11,4.16.8,4.14,3.73s-2.16,2.69-4.07,2.69c-8.35,0-16.7.17-25-.06-3.79-.1-5.17.81-5.36,5-.94,20-1.1,20,18.68,20h15c1.61,0,3.44-.12,3.47,2.4,0,2.22-.53,3.91-3.11,3.91h-38.42c-3.81,0-3.46-2.76-3.46-5.28Z"/><path class="cls-2" d="M1732.26,839.16c.62,1.88-.53,2.49-2,2.61-2.28.17-4.38.09-5.37-2.69-1.47-4.17-3.42-8.17-4.74-12.38-1.18-3.75-3.21-5.2-7.23-5a200.46,200.46,0,0,1-21.65,0c-4.86-.31-6.91,1.66-8.16,6-1.14,4-3.09,7.68-4.54,11.57-1.21,3.26-4,2.94-6.25,2.41-4.23-1-1-3.68-.49-5.1,7.75-20.12,15.69-40.15,23.61-60.19,1-2.61,2.14-4.76,5.82-4.48,3.1.25,4.85.82,6.12,4.08,7.9,20.34,16.1,40.57,24.19,60.84C1731.83,837.55,1732,838.37,1732.26,839.16Zm-16.78-24-14-35.18L1688,815.16Z"/><path class="cls-2" d="M750.81,797.37c0-6.12-.24-12.24.12-18.33.16-2.6-2.54-7.24,3.67-7,5.46.18,3.25,4.28,3.3,6.72.21,12.22-.1,24.45.15,36.67.28,13.66,7.75,20.92,20.64,20.61,11.39-.27,18.64-7.66,18.86-19.82.24-12.78,0-25.56.13-38.34,0-2.25-1.81-5.78,3.24-5.9,4.6-.11,3.86,2.79,3.86,5.48,0,13.33.3,26.68-.09,40-.47,16.07-11.31,25.67-27.78,25.28-15.91-.36-25.9-10.36-26.08-26.16C750.75,810.15,750.81,803.76,750.81,797.37Z"/><path class="cls-2" d="M1874.32,842.73A42.66,42.66,0,0,1,1855,838.4c-1.92-1-6.28-1-4.23-5.39,1.81-3.85,4.36-2.13,6.85-.84,7.18,3.72,14.88,4.4,22.72,3.46,6.18-.74,11.22-3.26,12.17-10.35s-3.14-10.89-9.16-13c-5.76-2-11.71-3.42-17.46-5.44-10-3.51-15.59-10.63-15-18.69.64-8.81,7-15,17.71-17.12,8.78-1.74,17.1.27,25.2,3.46,2,.8,4,1.44,2.3,4.67-1.5,2.79-2.75,2.44-5.16,1.52-6.78-2.57-13.73-4.78-21.11-3-5.71,1.35-10.47,3.92-11.1,10.66s3.63,10.07,9.23,12.09c5,1.78,10,3.29,15,5,13.5,4.5,18.86,10.88,17.42,20.7-1.46,10-9.69,16-22.7,16.67C1876.55,842.78,1875.43,842.73,1874.32,842.73Z"/><path class="cls-2" d="M1488,842.84a45.45,45.45,0,0,1-20-5.16c-1.79-1-4.74-1.23-3-4.58,1.54-2.89,3.34-2.85,6.08-1.34,7,3.89,14.74,4.74,22.62,4,6.58-.58,12-3,13.23-10.34s-3.42-11.21-9.72-13.33c-5.5-1.86-11.16-3.25-16.65-5.15-10.63-3.67-15.62-10.3-14.92-19.38s6.76-14.7,17.88-16.68c8.49-1.52,16.55.5,24.41,3.48,2.09.8,4.2,1.6,2.51,4.75-1.35,2.51-2.56,2.62-5.17,1.59-6.72-2.66-13.64-4.76-21.07-3.09-5.87,1.32-10.57,4.22-11.29,10.59-.75,6.62,3.66,10.15,9.28,12.15s11.65,3.55,17.38,5.59c11.85,4.23,16.3,10.6,14.87,20.83-1.21,8.64-8.64,14.51-19.88,15.64C1492.39,842.66,1490.17,842.71,1488,842.84Z"/><path class="cls-2" d="M1158.5,842.73c-9.27-.11-16.26-1.58-22.73-5.09-1.73-.93-4.73-1-2.87-4.46,1.57-2.92,3.27-3,6-1.46,7,3.89,14.72,4.74,22.6,4.08,7-.58,12.61-3.5,13.54-11.06.87-7-4-10.56-9.86-12.59s-11.72-3.36-17.44-5.42c-10.18-3.66-14.76-10-14.28-19,.47-8.62,6.22-14.32,16.92-16.64,8.77-1.9,17.08.22,25.24,3.18,2,.74,4.23,1.73,2.73,4.78-1.2,2.42-2.42,2.83-5.16,1.71-6.42-2.63-13.11-4.61-20.23-3.29-6.2,1.14-11.37,3.95-12.06,10.76s3.88,10.46,10,12.42c5.8,1.85,11.64,3.58,17.33,5.72,11.34,4.27,15.17,9.8,14,19.63-1,9.18-7.92,15.07-19.09,16.33C1161,842.59,1158.77,842.71,1158.5,842.73Z"/><path class="cls-2" d="M579.5,842.68a41.7,41.7,0,0,1-18.56-5c-1.72-.92-4.7-1-2.94-4.43,1.48-2.88,3.17-3.11,6-1.55,7.28,4,15.25,4.87,23.42,4,6.73-.7,11.89-3.78,12.77-10.91s-3.91-10.59-9.8-12.63-11.72-3.36-17.44-5.41C562.46,803,557.79,796.31,558.64,787c.74-8.12,6.5-13.57,16.83-15.85,8.47-1.87,16.55,0,24.45,2.86,2.11.76,5.16,1.26,3.62,5-1.38,3.37-3.36,2.43-5.91,1.49-7.33-2.73-14.72-4.78-22.69-2.18-5.4,1.76-8.61,5.2-8.94,10.69-.32,5.33,2.85,8.94,7.63,10.75,5.69,2.15,11.57,3.79,17.33,5.73,13.4,4.52,17.93,10.46,16.33,21.29-1.37,9.31-9.1,15.07-21.4,15.9C584.51,842.77,583.12,842.68,579.5,842.68Z"/><path class="cls-2" d="M857.25,836a31.13,31.13,0,0,0,15.23-3.49c1.93-1,3.92-3.61,5.84.57,1.53,3.31-.84,3.86-2.53,4.93-13.94,8.79-37.54,5.26-48.29-7.17-11.14-12.89-11.27-35.09-.28-47.81,11.45-13.24,34.44-16.65,48.82-7.2,1.74,1.15,4,1.82,2.3,5-1.79,3.4-3.54,1.52-5.34.6a38,38,0,0,0-15.93-4.27c-17.57-.57-30.25,11.64-30.51,29.21S838.2,835.91,857.25,836Z"/><path class="cls-2" d="M1544.69,809.59c0-8.34-.36-16.71.13-25,.32-5.41-1.69-6.72-6.61-6.29-4.42.39-8.9,0-13.34.11-2.68.08-4.2-.66-4.21-3.65s2-2.77,4-2.77h47.56c2.24,0,4.5-.31,4.29,3.25-.2,3.37-2.4,3.13-4.65,3.15h-1.67c-17.54.45-17.54.45-17.54,17.72v40c0,2.84.3,5.68-4,5.77s-4-2.78-4-5.61Q1544.71,822.94,1544.69,809.59Z"/><path class="cls-2" d="M704.09,806.3c0-9.19-.1-18.39.06-27.58.05-2.85-1.84-7.1,4.16-6.83,5.29.23,3.66,4,3.67,6.62.12,17,.22,34,0,51-.08,4.66,1.11,6.38,6,6.09,6.66-.41,13.36-.14,20-.08,2.31,0,5.35-.91,5.09,3.32-.21,3.31-2.44,3.09-4.74,3.09-9.75,0-19.5-.17-29.24.05-4.28.1-5.09-1.85-5-5.56C704.2,826.35,704.09,816.32,704.09,806.3Z"/><path class="cls-2" d="M1744.67,806.53V777.3c0-2.82-.48-5.5,4-5.39s3.16,3,3.17,5.19c.07,17.26.3,34.53-.1,51.79-.13,5.63,1.64,7.07,7,6.73,6.94-.44,13.92-.12,20.88-.09,1.89,0,4-.3,3.93,2.77,0,2.54-1.26,3.47-3.59,3.47-10.58,0-21.16-.06-31.74,0-4,0-3.47-2.75-3.48-5.19C1744.65,826.58,1744.67,816.56,1744.67,806.53Z"/><path class="cls-2" d="M1650.27,806.34V777.12c0-3.1.14-5.34,4.31-5.26,3.87.06,3.7,2.27,3.69,4.89v60.11c0,2.65,0,5-3.73,5-4.16,0-4.26-2.5-4.25-5.51C1650.29,826.38,1650.27,816.36,1650.27,806.34Z"/><path class="cls-2" d="M892.87,807.17V777.23c0-2.2-1.12-5.08,3.12-5.28,4.48-.2,4,2.56,4,5.36v59.05c0,2.86.25,5.69-4.11,5.41-4.19-.26-3-3.31-3-5.49C892.81,826.57,892.87,816.87,892.87,807.17Z"/><path class="cls-2" d="M1230.46,807.29V836.4c0,2.24,1,5.19-3.12,5.38-4.47.2-4-2.8-4-5.54v-59c0-2.28-.9-5,3.25-5.24,4.58-.21,3.86,2.71,3.87,5.4Z"/></g></g></svg>